<svg xmlns="http://www.w3.org/2000/svg" fill="none" viewBox="0 0 128 128">
  <path d="M50.4 78.5a75.1 75.1 0 0 0-28.5 6.9l24.2-65.7c.7-2 1.9-3.2 3.4-3.2h29c1.5 0 2.7 1.2 3.4 3.2l24.2 65.7s-13.6-7-28.5-6.9l-11.4-30.4a.6.6 0 0 0-1.2 0L50.4 78.5z" fill="url(#a)"/>
  <path d="M78.7 96.7c0 2.1.6 4.1 1.8 5.8l-24.8-7.5c.4-1.1.6-2.3.6-3.5 0-4.3-3.1-7.9-7.3-9.1l9.5-28.3a.6.6 0 0 1 1.2 0l9.5 28.3c-4.2 1.2-7.3 4.8-7.3 9.1 0 5.3 4.3 9.5 9.5 9.5H78a9 9 0 0 1-.5-2.9 9 9 0 0 1 9-9 9 9 0 0 1 9 9 9 9 0 0 1-9 9 9 9 0 0 1-7.8-3.9z" fill="url(#b)"/>
  <defs>
    <linearGradient id="a" x1="0" y1="0" x2="128" y2="128" gradientUnits="userSpaceOnUse">
      <stop stop-color="#D83333"/>
      <stop offset="1" stop-color="#F041FF"/>
    </linearGradient>
    <linearGradient id="b" x1="0" y1="0" x2="128" y2="128" gradientUnits="userSpaceOnUse">
      <stop stop-color="#D83333"/>
      <stop offset="1" stop-color="#F041FF"/>
    </linearGradient>
  </defs>
</svg>
